<svg width="70" height="70" viewBox="0 0 70 70" fill="none" xmlns="http://www.w3.org/2000/svg">
<path d="M58.3334 35V57.25C58.3334 59.1356 58.3334 60.0784 57.7476 60.6642C57.1618 61.25 56.219 61.25 54.3334 61.25H17.6667C14.8383 61.25 13.424 61.25 12.5454 60.3713C11.6667 59.4926 11.6667 58.0784 11.6667 55.25V52.6667C11.6667 49.8382 11.6667 48.424 12.5454 47.5453C13.424 46.6667 14.8383 46.6667 17.6667 46.6667H54.3333C56.219 46.6667 57.1618 46.6667 57.7476 46.0809C58.3334 45.4951 58.3334 44.5523 58.3334 42.6667V12.75C58.3334 10.8644 58.3334 9.92157 57.7476 9.33579C57.1618 8.75 56.219 8.75 54.3334 8.75H15.6667C13.7811 8.75 12.8383 8.75 12.2525 9.33579C11.6667 9.92157 11.6667 10.8644 11.6667 12.75V53.9583" stroke="black" stroke-width="2"/>
<path d="M26.25 29.1666L31.3762 34.2928C31.7667 34.6833 32.3999 34.6833 32.7904 34.2928L43.75 23.3333" stroke="black" stroke-width="2" stroke-linecap="round"/>
</svg>
